<svg width="18" height="18" viewBox="0 0 18 18" fill="none" xmlns="http://www.w3.org/2000/svg">
<path d="M14.4545 3.979V1.584C14.4545 1.0425 14.1175 0.571 13.637 0.4395L12.0275 0L8.994 7.2945L5.9605 0L4.351 0.4395C3.8705 0.571 3.5335 1.043 3.5335 1.584V3.9785C3.5335 5.81 2.1755 7.2945 0.5 7.2945V16.8125C0.5 17.4155 0.9755 17.905 1.5615 17.905H7.477C8.3145 17.905 8.994 17.1625 8.994 16.247C8.994 17.1625 9.673 17.905 10.511 17.905H16.4265C17.013 17.905 17.4885 17.416 17.4885 16.8125V7.2945C15.8125 7.2945 14.4545 5.81 14.4545 3.979Z" fill="#EB7421"/>
</svg>
